<svg width="30" height="31" viewBox="0 0 30 31" fill="none" xmlns="http://www.w3.org/2000/svg">
<path d="M22.0823 20.1L27.0223 25.39C27.3757 25.7768 27.5633 26.2868 27.5446 26.8104C27.5259 27.334 27.3024 27.8294 26.9223 28.19C26.536 28.5404 26.0282 28.726 25.507 28.7073C24.9858 28.6886 24.4925 28.4671 24.1323 28.09L21.4823 25.25" stroke="#EE5533" stroke-width="2" stroke-miterlimit="10" stroke-linecap="round"/>
<path d="M17.4523 3.33C19.8352 4.36603 21.7592 6.23449 22.8645 8.58603C23.9699 10.9376 24.1809 13.6112 23.4581 16.107C22.7354 18.6028 21.1283 20.75 18.9375 22.147C16.7466 23.544 14.1219 24.0952 11.5542 23.6976C8.98639 23.3 6.65134 21.9807 4.98561 19.9865C3.31988 17.9923 2.4375 15.4597 2.50345 12.8622C2.5694 10.2646 3.57918 7.78006 5.34396 5.87296C7.10875 3.96585 9.50771 2.7668 12.0923 2.5" stroke="#EE5533" stroke-width="2" stroke-miterlimit="10" stroke-linecap="round"/>
</svg>
